/* XPM */
static char *ICO_HELP[] = {
/* columns rows colors chars-per-pixel */
"32 32 2 1",
"  c #000000",
". c None",
/* pixels */
"................................",
"................................",
"................................",
"................................",
"................................",
"................................",
"................................",
"................................",
".............      .............",
"...........   ....   ...........",
"..........    ....    ..........",
".........      ..      .........",
".........     ....     .........",
"........     ......     ........",
"........ .. ........ .. ........",
"........ .............. ........",
"........ .............. ........",
"........ .. ........ .. ........",
"........     ......     ........",
".........     ....     .........",
".........     ...      .........",
"..........    ....    ..........",
"...........   ....   ...........",
".............      .............",
"................................",
"................................",
"................................",
"................................",
"................................",
"................................",
"................................",
"................................"
};
