/* XPM */
static char *Lite_Icon_icon[] = {
/* columns rows colors chars-per-pixel */
"64 64 240 2",
"   c #466073",
".  c #466175",
"X  c #5B7B95",
"o  c #6086A6",
"O  c #6087A7",
"+  c #6389A8",
"@  c #6A96BC",
"#  c #6C97BD",
"$  c #7EA2B7",
"%  c #7EA4BB",
"&  c #3E9EF7",
"*  c #3E9EF8",
"=  c #3F9EF8",
"-  c #729EC2",
";  c #71A0C9",
":  c #76A5CC",
">  c #7CA9CB",
",  c #409EF7",
"<  c #409FF7",
"1  c #419FF7",
"2  c #429FF7",
"3  c #409FF8",
"4  c #419FF8",
"5  c #43A0F7",
"6  c #44A0F6",
"7  c #45A0F6",
"8  c #45A1F6",
"9  c #44A0F7",
"0  c #46A1F6",
"q  c #47A1F6",
"w  c #47A2F6",
"e  c #4BA3F5",
"r  c #49A2F6",
"t  c #4AA3F6",
"y  c #4CA3F5",
"u  c #4DA4F5",
"i  c #4EA4F5",
"p  c #4FA5F5",
"a  c #43A0F8",
"s  c #47A2F8",
"d  c #4BA4F8",
"f  c #4CA4F8",
"g  c #4CA5F8",
"h  c #4EA5F8",
"j  c #4FA6F8",
"k  c #51A5F4",
"l  c #50A5F5",
"z  c #52A6F4",
"x  c #53A6F4",
"c  c #54A7F4",
"v  c #55A7F4",
"b  c #56A7F4",
"n  c #5AA9F3",
"m  c #5CAAF3",
"M  c #5DAAF3",
"N  c #5FABF2",
"B  c #52A8F8",
"V  c #53A8F8",
"C  c #54A9F8",
"Z  c #57AAF8",
"A  c #5AACF8",
"S  c #5BACF8",
"D  c #5CADF8",
"F  c #7AB0E1",
"G  c #7BB1E1",
"H  c #72B3EF",
"J  c #74B3EF",
"K  c #77B5EE",
"L  c #76B4EF",
"P  c #78B5EE",
"I  c #7BB6EE",
"U  c #60ABF2",
"Y  c #62ACF2",
"T  c #65AEF1",
"R  c #66AEF1",
"E  c #6AAFF1",
"W  c #6AB0F0",
"Q  c #6BB0F0",
"!  c #6AB0F1",
"~  c #6CB0F0",
"^  c #6DB1F0",
"/  c #6DB1F1",
"(  c #6FB1F0",
")  c #6FB2F0",
"_  c #66B1F9",
"`  c #67B2F9",
"'  c #69B3F9",
"]  c #6AB3F9",
"[  c #6BB4F9",
"{  c #70B2F0",
"}  c #73B8F9",
"|  c #74B9F9",
" . c #7ABBF9",
".. c #7CBCF9",
"X. c #7DBDF9",
"o. c #7EBDF9",
"O. c #7FBEF9",
"+. c #878986",
"@. c #888986",
"#. c #B1B2AF",
"$. c #82B7E4",
"%. c #86BBE7",
"&. c #8BBCE1",
"*. c #80B8ED",
"=. c #82B9ED",
"-. c #83BAED",
";. c #80B9EE",
":. c #80B9EF",
">. c #80BAEF",
",. c #86BBEC",
"<. c #87BBEC",
"1. c #8CBDEB",
"2. c #8DBDEB",
"3. c #8EBEEB",
"4. c #8FBEEB",
"5. c #8ABCEC",
"6. c #90BFEB",
"7. c #91BFEB",
"8. c #81BAF0",
"9. c #81BBF2",
"0. c #81BDF4",
"q. c #82BEF5",
"w. c #84BFF5",
"e. c #84BFF6",
"r. c #80BEF9",
"t. c #81BFF9",
"y. c #82BFF8",
"u. c #83BFF8",
"i. c #82BFF9",
"p. c #95C1DB",
"a. c #94C1DD",
"s. c #97C4DF",
"d. c #98C4DE",
"f. c #96C1EA",
"g. c #97C2EA",
"h. c #96C7E8",
"j. c #96C7E9",
"k. c #9BC3E9",
"l. c #9FC5E8",
"z. c #97CAEE",
"x. c #9FCEE9",
"c. c #9FCEEA",
"v. c #99CAEC",
"b. c #99CBEC",
"n. c #99CBEE",
"m. c #87C1F5",
"M. c #85C0F7",
"N. c #85C1F7",
"B. c #87C1F7",
"V. c #8CC4F2",
"C. c #8DC4F3",
"Z. c #88C2F5",
"A. c #88C2F6",
"S. c #83C0F8",
"D. c #82C0F9",
"F. c #83C0F9",
"G. c #83C0FA",
"H. c #86C1F8",
"J. c #91C7F1",
"K. c #9ECAF3",
"L. c #9DCAF4",
"P. c #9ECAF4",
"I. c #A4C7E7",
"U. c #A5C7E7",
"Y. c #A6C7E7",
"T. c #A6C8E7",
"R. c #A8C9E7",
"E. c #A9C9E7",
"W. c #AAC9E7",
"Q. c #ABCAE6",
"!. c #ADCAE6",
"~. c #AECBE6",
"^. c #AFCBE6",
"/. c #A0C5E8",
"(. c #A3C6E8",
"). c #A3C7E8",
"_. c #A4C7E8",
"`. c #A0CEE9",
"'. c #B1CCE5",
"]. c #B2CCE5",
"[. c #B2CDE5",
"{. c #B3CDE5",
"}. c #B0CCE6",
"|. c #B1CCE6",
" X c #B5CEE5",
".X c #B6CEE5",
"XX c #B7CEE5",
"oX c #B7CFE5",
"OX c #B8CFE4",
"+X c #B9CFE4",
"@X c #A3D0E7",
"#X c #A4D0E7",
"$X c #BBD0E4",
"%X c #BCD0E4",
"&X c #BCD1E4",
"*X c #BDD1E4",
"=X c #CFD0CE",
"-X c #D0D1CE",
";X c #D9DCDF",
":X c #DADDDF",
">X c #DBDDDF",
",X c #DCDDDF",
"<X c #DCDEDF",
"1X c #DDDEDF",
"2X c #DEDEDF",
"3X c #DFDFDF",
"4X c #C1D2E3",
"5X c #C1D3E3",
"6X c #C2D3E3",
"7X c #C3D3E3",
"8X c #C3D4E3",
"9X c #C5D4E2",
"0X c #C4D4E3",
"qX c #C6D5E2",
"wX c #CBD7E1",
"eX c #C8D5E2",
"rX c #CAD6E2",
"tX c #CBD7E2",
"yX c #CCD7E1",
"uX c #CDD7E1",
"iX c #CDD8E1",
"pX c #CED8E1",
"aX c #D0D9E1",
"sX c #D1D9E1",
"dX c #D2D9E0",
"fX c #D2DAE0",
"gX c #D3DAE0",
"hX c #D4DAE0",
"jX c #D5DBE0",
"kX c #D6DBE0",
"lX c #D7DBE0",
"zX c #D8DCE0",
"xX c #DFE0E0",
"cX c #E0E0E0",
"vX c #E1E1E1",
"bX c #E2E2E2",
"nX c #E3E3E3",
"mX c #E4E4E4",
"MX c #E5E5E5",
"NX c None",
/* pixels */
"NXNXNXNXNXNXNXNXNXNXNXNXNXNXNXNXNXNXNXNXNXNXNXNXNXNXNXNXNXNXNXNXNXNXNXNXNXNXNXNXNXNXNXNXNXNXNXNXNXNXNXNXNXNXNXNXNXNXNXNXNXNXNXNX",
"NXNXNXNXNXNXNXNXNXNXNXNXNXNXNXNXNXNXNXNXNXNXNXNXNXNXNXNXNXNXNXNXNXNXNXNXNXNXNXNXNXNXNXNXNXNXNXNXNXNXNXNXNXNXNXNXNXNXNXNXNXNXNXNX",
"NXNXNXNXNXNXNXNXNXNXNXNXNXNXNXNXNXNXNXNXNXNXNXNXNXNXNXNXNXNXNXNXNXNXNXNXNXNXNXNXNXNXNXNXNXNXNXNXNXNXNXNXNXNXNXNXNXNXNXNXNXNXNXNX",
"NXNXNXNXNXNXNXNXNXNXNXNXNXNXNXNXNXNXNXNXNXNXNXNXNXNXNXNXNXNXNXNXNXNXNXNXNXNXNXNXNXNXNXNXNXNXNXNXNXNXNXNXNXNXNXNXNXNXNXNXNXNXNXNX",
"NXNXNXNXNXNXNXNXNXNXNXNXNXNXNXNXNXNXNXNXNXNXNXNXNXNX@Xb.J.H.G.G.G.G.B.J.n.@XNXNXNXNXNXNXNXNXNXNXNXNXNXNXNXNXNXNXNXNXNXNXNXNXNXNX",
"NXNXNXNXNXNXNXNXNXNXNXNXNXNXNXNXNXNXNXNXNXNXNXL.G.G.G.G.G.G.G.G.G.G.G.G.G.G.G.G.z.NXNXNXNXNXNXNXNXNXNXNXNXNXNXNXNXNXNXNXNXNXNXNX",
"NXNXNXNXNXNXNXNXNXNXNXNXNXNXNXNXNXNXNXNX`.H.G.G.G.r.| ] S Z f f d j V S _ | G.G.G.G.H.x.NXNXNXNXNXNXNXNXNXNXNXNXNXNXNXNXNXNXNXNX",
"NXNXNXNXNXNXNXNXNXNXNXNXNXNXNXNXNXNX`.G.G.G...] V < * * * * * * * & * * * & 5 V [ O.G.G.G.x.NXNXNXNXNXNXNXNXNXNXNXNXNXNXNXNXNXNX",
"NXNXNXNXNXNXNXNXNXNXNXNXNXNXNXNXNXA.G.G...S 4 * * * * * * * * * * * * * * * * * * * S  .G.G.A.NXNXNXNXNXNXNXNXNXNXNXNXNXNXNXNXNX",
"NXNXNXNXNXNXNXNXNXNXNXNXNXNXNXb.i.u...D 4 * * * * * * * * * * * * * * * * * * * * * * * S ..G.G.b.NXNXNXNXNXNXNXNXNXNXNXNXNXNXNX",
"NXNXNXNXNXNXNXNXNXNXNXNXNXNXC.G.u.[ 4 * * * * * * * * * * * * * * * * * * * * * * * * * * a [ G.G.C.NXNXNXNXNXNXNXNXNXNXNXNXNXNX",
"NXNXNXNXNXNXNXNXNXNXNXNXNXA.G.r.Z * * * * * * * * * * * * * * * * * * * * * * * * * * * * * * S r.G.A.NXNXNXNXNXNXNXNXNXNXNXNXNX",
"NXNXNXNXNXNXNXNXNXNXNXNXB.G...f * * * * * * * * * * * * * * * * * * * * * * * * * * * * * * * * f ..G.B.NXNXNXNXNXNXNXNXNXNXNXNX",
"NXNXNXNXNXNXNXNXNXNXNXB.G. .s * * * * * * * * * * * * * * * * * * * * * * * * * * * * * * * * * * s  .G.A.NXNXNXNXNXNXNXNXNXNXNX",
"NXNXNXNXNXNXNXNXNXNXC.G...s * * * * * * * * * * * * * * * * * * * * * * * * * * * * * * * * * * * * s ..G.C.NXNXNXNXNXNXNXNXNXNX",
"NXNXNXNXNXNXNXNXNXh.G.r.d * * * * * * * * * * * * * * * * * * * * * * * * * * * * * * * * * * * * * * d r.G.h.NXNXNXNXNXNXNXNXNX",
"NXNXNXNXNXNXNXNXNXG.G.Z * * * * * * * * * * * * * * * * * * * * * * * * * * * * * * * * * * * * * * * * Z G.G.NXNXNXNXNXNXNXNXNX",
"NXNXNXNXNXNXNXNXB.G.[ * * * * * * * * * * * * * * * * * * * * * * * * * * * * * * * * * * * * * * * * * * [ G.B.NXNXNXNXNXNXNXNX",
"NXNXNXNXNXNXNXd.G...a * * * * * * * * * * * * * * * * * * * * * * * * * * * * * * * * * * * * * * * * * * a ..G.s.NXNXNXNXNXNXNX",
"NXNXNXNXNXNXNXG.G.S * * * * * * * * * * * * * * * * * * * * * * * * * * * * * * * * * * * * * * * * * * * * S G.G.NXNXNXNXNXNXNX",
"NXNXNXNXNXNXp.G. .* * * * * * * * * & < 9 N * * * * * * * * * & * * * * * * * * * * R 9 * * * * * * * * * * *  .G.a.NXNXNXNXNXNX",
"NXNXNXNXNXNXB.G.S * * * * * * * * * * 9 $X,.* * * * * * * * x W.T.u * * * * * * * * 4.7Xu * * * * * * * * * * S G.B.NXNXNXNXNXNX",
"NXNXNXNXNXNXG...4 * * * * * * * * * 9 $X<X,.* * * * * * 2 7.;X3X3XzX4.5 * * * * * * 4.<X9Xt * * * * * * * * * a ..H.NXNXNXNXNXNX",
"NXNXNXNXNX&.G.[ * * * * * * * * * & ~.3X3X,.* * * * & P dX3X3X3X3X3X3XrXJ & * * * * 4.3X<XOX< * * * * * * * * * [ G.&.NXNXNXNXNX",
"NXNXNXNXNXG.G.V * * * * * * * * * ,.3X3X3X,.* * * Y +X3X3X3X3X<X<X3XzXvX3XOXN * & & 4.3X3X3X6.& * * * * * * * * V G.G.NXNXNXNXNX",
"NXNXNXNXNXG.G.& * * * * * * * * c ;X3X3X3X,.* i (.<X3X3XyX|.|.|.[.[.|.yX3X3XzXl.d * 4.<X3X3X<Xb * * * * * * * * a ..G.NXNXNXNXNX",
"NXNXNXNX$ G.| * * * * * * * * * Y.3X3X3X3X<.{ lX3X3X3XOX+X3XhX.XXXdX<X&XXXcX3X3XjX! 4.3X3X3X3XT.* * * * * * * * * | G.% NXNXNXNX",
"NXNXNXNX> G._ * * * * * * * * u <X3X3X3X<X,.6.3X3X<X.XyXdXL < * * 4 P dXyXOX3X3X3X<.4.3X3X3X3X<Xu * * * * * * * * _ G.> NXNXNXNX",
"NXNXNXNX%.G.S * * * * * * * * -.<X3X3X3X3X<.6.3X3XyX+XhXc 4 * * * * & u dX4XyXcX3X<.4.3X3X3X3X3XI * * * * * * * & A G.%.NXNXNXNX",
"NXNXNXNXB.G.V * * * * * * * * ~.3X3X3X3X3X,.6.3X3X|.<XP * * * * * * * * { 3X|.3X3X<.4.<X3X3X3X3X~.& * * * * * * & V G.M.NXNXNXNX",
"NXNXNXNXr.G.u * * * * * * * * yX3X3X3X3X3X,.6.3X3X|.dX< * * * * * * * * & ;X|.<X3X<.4.3X3X3X3X3XrX* * * * * * * * f G.G.NXNXNXNX",
"NXNXNXNXG.G.d * * * * * * * 5 <X3X3X3X3X3X,.6.<X2X|.OX* * * * * * * * * * XXXX3X3X,.4.3X3X3X3X3X<X< * * * * * * * f G.G.NXNXNXNX",
"NXNXNXNXG.G.d * * * * * * * t 3X3X3X3X3X<X,.6.3X<X|.XX4 * * * * * * * * * XX[.<X3X<.6.3X3X3X3X3X3Xt * * * * * * * d G.G.NXNXNXNX",
"NXNXNXNXG.G.f * * * * * * * t 3X3X3X3X3X3X,.4.3X3X|.dX< * * * * * * * * & dX[.3X3X<.4.<X3X3X3X3X3Xt * * * * * * * f G.r.NXNXNXNX",
"NXNXNXNXe.G.Z * * * * * * * * zX3X3X3X3X3X<.6.3X3X~.3XP * * * * * * * * P 3X|.<X3X<.4.3X3X3X3X3X<X< * * * * * * * V u.e.NXNXNXNX",
"NXNXNXNX$.G.Z * * * * * * * * qX3X3X3X3X3X,.6.3X3XyX+XdXc * * * * * * x dX&XyX3X<X,.4.3X3X3X3X3XyX* * * * * * * * S H.$.NXNXNXNX",
"NXNXNXNX- G._ * * * * * * * * (.3X3X3X3X3X,.6.3X3X3XXXyXhXP < * 4 2 { hXyXOXcXcX<X,.4.3X3X3X3X3X~.* * * * * * * * _ G.- NXNXNXNX",
"NXNXNXNXX i.| * * * * * * * * { 3X3X3X3X3X,.{ hX3X3X<XXX+X<XhXXXXXhX3X+XXXzX3X3X;XQ 4.<X3X3X3X3XI * * * * * * * * | G.X NXNXNXNX",
"NXNXNXNXNXH.r.* * * * * * * * s hX3X3X3X3XrX~ i Y.<X3X3XyX|.|..X[.|.|.yX3X<X<X/.t H yX3X3X3X3X;Xi * * * * * * * * r.i.NXNXNXNXNX",
"NXNXNXNXNXr.H.B * * * * * * * * k.3X3X3X3X3X<X|.c Y %X3X3X3X<X<X<X3X3X3X3XXXm N XX3X3X3X3X3X3X/.& * * * * * * * V G.H.NXNXNXNXNX",
"NXNXNXNXNX: G.] * * * * * * * * t hX3X3X3X3X3X3X<Xf.t P dXzX3X3X3X3X3XyXH t k.<X3X3X3X3X3X3XlXl * * * * * * * * [ G.: NXNXNXNXNX",
"NXNXNXNXNXNXH...a * * * * * * * * I 3X3X3X3X3X3X3X3XpXP 9 f.;XcX3XlX4.9 -.dX<X3X3X3X3X3X3X<X-.* * * * * * * * a ..G.NXNXNXNXNXNX",
"NXNXNXNXNXNXe.G.Z * * * * * * * * & Y.<X3X3X3X3X3X3X3X3X&XR x W.(.x R 7X3X3X3X3X3X3X3X3XcXW.& * * * * * * * * S G.e.NXNXNXNXNXNX",
"NXNXNXNXNXNX+ G. .* * * * * * * * * < XX3X3X3X3X3X3X3X3X3X3X/.u x W.3X<X3X3X3X3X3X3X3X3XOX2 * * * * * * * * *  .G.+ NXNXNXNXNXNX",
"NXNXNXNXNXNXNXr.G.S * * * * * * * * < 2 +XcX<X3X3X3X3X3X3X3X3XlX;X<X3X3X3X3X3X3X3X3X<X+Xt * * * * * * * * * S G.G.NXNXNXNXNXNXNX",
"NXNXNXNXNXNXNX+ G...s * * * * * * * * * i 7X3X3X3X3X3X3X3X3X3X3X3X3X3X3X3X3X3X3X3X3X7Xt * * * * * * * * * a ..G.+ NXNXNXNXNXNXNX",
"NXNXNXNXNXNXNXNX8.G.[ * * * * * * * * * & t 9XcX3X3X3X3X3X3X3X3X3X3X3X3X3X3X3X3X3X4Xt * * * * * * * * * * [ G.8.NXNXNXNXNXNXNXNX",
"NXNXNXNXNXNXNXNXNXu.u.Z * * * * * * * * * * i 9X3X3X3X3X3X3X3X3X3X3X3X3X3X3X3X3X9Xi * * * * * * * * * * Z G.G.NXNXNXNXNXNXNXNXNX",
"NXNXNXNXNXNXNXNXNX# G.r.d * * * * * * * * * * x dX3X3X3X3X3X3X3X3X3X3X3X3X3X3XhXx * * * * * * * * * * d r.G.# NXNXNXNXNXNXNXNXNX",
"NXNXNXNXNXNXNXNXNXNXF H...s * * * * * * * * * * { vX3X3X3X3X3X3X3X3X3X3X3X3X3XJ * * * * * * * * * * s  .G.F NXNXNXNXNXNXNXNXNXNX",
"NXNXNXNXNXNXNXNXNXNXNX8.G. .s * * * * * * * * * & 7X3X3X3X3X3X3X3X3X3X3X3X3X9X& * * * * * * * * * s  .G.8.NXNXNXNXNXNXNXNXNXNXNX",
"NXNXNXNXNXNXNXNXNXNXNXNX9.G...f * * * * * * * * * <.3X3X3X3X3X3X3X3X3X3X3X3X6.* * * * * * * * * f ..G.9.NXNXNXNXNXNXNXNXNXNXNXNX",
"NXNXNXNXNXNXNXNXNXNXNXNXNX8.r.r.Z * * * * * * * * ~ 3X3X3X3X3X3X3X3X3X3X3X3X{ * * * * * * * * Z r.G.-.NXNXNXNXNXNXNXNXNXNXNXNXNX",
"NXNXNXNXNXNXNXNXNXNXNXNXNXNXF H.G.[ a * * * * * * E 3X3X3X3X3X3X3X3X3X3X3X3X~ * * * * * * a [ G.G.F NXNXNXNXNXNXNXNXNXNXNXNXNXNX",
"NXNXNXNXNXNXNXNXNXNXNXNXNXNXNX@ r.H...D * * * * * E 3X3X3X3X3X3X3X3X3X3X3X3X! * * * * * S ..G.G.@ NXNXNXNXNXNXNXNXNXNXNXNXNXNXNX",
"NXNXNXNXNXNXNXNXNXNXNXNXNXNXNXNX. 8.H.r. .D a * * E 3X3X3X3X3X3X3X3X3X3X3X<X! * * 4 S  .G.G.-.  NXNXNXNXNXNXNXNXNXNXNXNXNXNXNXNX",
"NXNXNXNXNXNXNXNXNXNXNXNXNXNXNXNXNXNXO r.H.G...[ Z ~ <XvX3X3X3X3X3X3X<X3X3X3XH V ] ..H.G.r.O NXNXNXNXNXNXNXNXNXNXNXNXNXNXNXNXNXNX",
"NXNXNXNXNXNXNXNXNXNXNXNXNXNXNXNXNXNXNXNXo e.G.G.G.K.nXvXvXvXvX3X3XvXvXvXnXnXK.G.G.G.e.o NXNXNXNXNXNXNXNXNXNXNXNXNXNXNXNXNXNXNXNX",
"NXNXNXNXNXNXNXNXNXNXNXNXNXNXNXNXNXNXNXNXNXNX. ; r.L.MXMXMXMXMXMXMXMXMXMXMXMXL.r.; . NXNXNXNXNXNXNXNXNXNXNXNXNXNXNXNXNXNXNXNXNXNX",
"NXNXNXNXNXNXNXNXNXNXNXNXNXNXNXNXNXNXNXNXNXNXNXNXNXNX@.#.-X3XMXMXMXMX3X-X#.@.NXNXNXNXNXNXNXNXNXNXNXNXNXNXNXNXNXNXNXNXNXNXNXNXNXNX",
"NXNXNXNXNXNXNXNXNXNXNXNXNXNXNXNXNXNXNXNXNXNXNXNXNXNXNXNXNXNXNXNXNXNXNXNXNXNXNXNXNXNXNXNXNXNXNXNXNXNXNXNXNXNXNXNXNXNXNXNXNXNXNXNX",
"NXNXNXNXNXNXNXNXNXNXNXNXNXNXNXNXNXNXNXNXNXNXNXNXNXNXNXNXNXNXNXNXNXNXNXNXNXNXNXNXNXNXNXNXNXNXNXNXNXNXNXNXNXNXNXNXNXNXNXNXNXNXNXNX",
"NXNXNXNXNXNXNXNXNXNXNXNXNXNXNXNXNXNXNXNXNXNXNXNXNXNXNXNXNXNXNXNXNXNXNXNXNXNXNXNXNXNXNXNXNXNXNXNXNXNXNXNXNXNXNXNXNXNXNXNXNXNXNXNX",
"NXNXNXNXNXNXNXNXNXNXNXNXNXNXNXNXNXNXNXNXNXNXNXNXNXNXNXNXNXNXNXNXNXNXNXNXNXNXNXNXNXNXNXNXNXNXNXNXNXNXNXNXNXNXNXNXNXNXNXNXNXNXNXNX"
};
